Coordinates
version=1
nRows=43
nColumns=12
inDegrees=yes

Units are S.I. units (second, meters, Newtons, ...)
Angles are in degrees

endheader
time	SC_y	SC_z	SC_x	AC_y	AC_z	AC_x	GH_y	GH_z	GH_yy	EL_x	PS_y
       0.0              -11.27          36.05          13.57          59.56          -7.81          6.635          156.4          60.65          52.31          59.76          43.83
  0.008139              -11.27          36.05          13.57          59.55          -7.81          6.637          156.4          60.65          52.28          59.78          43.85
   0.01628              -11.27          36.05          13.57          59.55         -7.809          6.638          156.4          60.64          52.25          59.79          43.86
   0.02442              -11.28          36.05          13.58          59.55         -7.809          6.639          156.4          60.63          52.22           59.8          43.87
   0.03256              -11.28          36.04          13.58          59.54         -7.809          6.641          156.4          60.62          52.18          59.81          43.88
    0.0407              -11.28          36.04          13.58          59.54         -7.809          6.643          156.4          60.62          52.14          59.83           43.9
   0.04883              -11.28          36.04          13.58          59.53         -7.808          6.645          156.4          60.61           52.1          59.84          43.91
   0.05697              -11.29          36.04          13.58          59.53         -7.808          6.647          156.4           60.6          52.06          59.86          43.93
   0.06511              -11.29          36.03          13.59          59.52         -7.808          6.649          156.4          60.59          52.01          59.88          43.95
   0.07325              -11.29          36.03          13.59          59.52         -7.807          6.651          156.4          60.58          51.96           59.9          43.97
   0.08139               -11.3          36.02          13.59          59.51         -7.807          6.653          156.4          60.57           51.9          59.92          43.99
   0.08953               -11.3          36.02           13.6          59.51         -7.807          6.656          156.4          60.56          51.84          59.94          44.01
   0.09767               -11.3          36.02           13.6           59.5         -7.806          6.659          156.4          60.55          51.78          59.96          44.03
    0.1058              -11.31          36.01           13.6          59.49         -7.806          6.662          156.4          60.53          51.71          59.99          44.06
    0.1139              -11.31          36.01          13.61          59.48         -7.805          6.665          156.4          60.52          51.64          60.02          44.08
    0.1221              -11.32           36.0          13.61          59.47         -7.805          6.668          156.4           60.5          51.56          60.05          44.11
    0.1302              -11.32          35.99          13.62          59.46         -7.804          6.672          156.4          60.48          51.47          60.08          44.14
    0.1384              -11.33          35.99          13.62          59.45         -7.804          6.676          156.4          60.47          51.37          60.11          44.18
    0.1465              -11.33          35.98          13.63          59.44         -7.803          6.681          156.4          60.45          51.27          60.15          44.22
    0.1546              -11.34          35.97          13.64          59.43         -7.802          6.686          156.4          60.42          51.16          60.19          44.26
    0.1628              -11.35          35.96          13.64          59.42         -7.801          6.691          156.4           60.4          51.03          60.24          44.31
    0.1709              -11.36          35.95          13.65           59.4         -7.801          6.697          156.4          60.37          50.89          60.29          44.36
    0.1791              -11.37          35.94          13.66          59.38           -7.8          6.704          156.4          60.34          50.74          60.35          44.41
    0.1872              -11.38          35.93          13.67          59.37         -7.798          6.711          156.4          60.31          50.57          60.41          44.47
    0.1953              -11.39          35.92          13.68          59.34         -7.797           6.72          156.4          60.27          50.38          60.48          44.54
    0.2035               -11.4          35.91          13.69          59.32         -7.796          6.729          156.4          60.23          50.18          60.56          44.62
    0.2116              -11.42          35.89           13.7           59.3         -7.794          6.739          156.4          60.18          49.94          60.65          44.71
    0.2198              -11.43          35.87          13.72          59.27         -7.793           6.75          156.4          60.13          49.68          60.74           44.8
    0.2279              -11.45          35.85          13.74          59.23         -7.791          6.763          156.4          60.07          49.38          60.85          44.91
     0.236              -11.47          35.83          13.76           59.2         -7.789          6.778          156.4          60.01          49.04          60.98          45.04
    0.2442               -11.5           35.8          13.78          59.15         -7.786          6.795          156.4          59.93          48.66          61.12          45.18
    0.2523              -11.53          35.77           13.8           59.1         -7.783          6.814          156.4          59.84          48.21          61.29          45.34
    0.2604              -11.56          35.73          13.83          59.05          -7.78          6.837          156.4          59.74           47.7          61.48          45.53
    0.2686              -11.59          35.69          13.86          58.98         -7.776          6.863          156.3          59.62          47.11           61.7          45.75
    0.2767              -11.64          35.64           13.9          58.91         -7.771          6.893          156.3          59.49          46.41          61.96           46.0
    0.2849              -11.69          35.59          13.95          58.82         -7.766          6.929          156.3          59.33          45.59          62.26          46.31
     0.293              -11.75          35.52          14.01          58.71          -7.76          6.972          156.3          59.13          44.62          62.62          46.66
    0.3011              -11.82          35.44          14.07          58.58         -7.752          7.023          156.3           58.9          43.45          63.06          47.09
    0.3093              -11.91          35.34          14.15          58.42         -7.743          7.084          156.3          58.63          42.04          63.58          47.61
    0.3174              -12.02          35.22          14.25          58.23         -7.732           7.16          156.3          58.29          40.32          64.22          48.25
    0.3256              -12.15          35.08          14.37           58.0         -7.718          7.253          156.2          57.87          38.19          65.01          49.03
    0.3337              -12.32          34.89          14.52           57.7         -7.701          7.369          156.2          57.34          35.53           66.0          50.01
    0.3418              -12.52          34.66          14.71          57.33         -7.679          7.515          156.1          56.68          32.19          67.24          51.24
